<svg width="134" height="118" viewBox="0 0 134 118" fill="none" xmlns="http://www.w3.org/2000/svg">
<path d="M25.0002 91L1.00024 83" stroke="#18095B" stroke-width="2" stroke-miterlimit="10" stroke-linecap="round"/>
<path d="M25.0002 85L15.0002 77" stroke="#18095B" stroke-width="2" stroke-miterlimit="10" stroke-linecap="round"/>
<path d="M25.0002 96L15.0002 98" stroke="#18095B" stroke-width="2" stroke-miterlimit="10" stroke-linecap="round"/>
<path d="M109 91L133 83" stroke="#18095B" stroke-width="2" stroke-miterlimit="10" stroke-linecap="round"/>
<path d="M109 85L119 77" stroke="#18095B" stroke-width="2" stroke-miterlimit="10" stroke-linecap="round"/>
<path d="M109 96L119 98" stroke="#18095B" stroke-width="2" stroke-miterlimit="10" stroke-linecap="round"/>
<path fill-rule="evenodd" clip-rule="evenodd" d="M75.0572 36.8717L51.988 35.1531C48.4477 34.8894 48.0619 36.2366 47.9326 39.1023L47.7608 42.8822L43.783 42.8031C42.0517 42.7679 41.0567 43.1701 41.0473 44.8688L41.0002 52.8133C41.0144 53.7121 41.8918 53.9692 42.4587 53.9517C58.3016 53.9648 74.1445 54 89.9875 54C92.7044 53.9539 92.8479 53.5671 92.9773 51.1101L92.902 49.5476C92.9749 48.3675 93.0761 45.5084 92.9114 44.4205C92.6338 42.5811 91.006 42.9239 89.2841 42.8338C89.4159 39.7484 90.0792 38.1507 86.3084 37.8232L79.9007 37.3749L82.1848 27.0197L77.5319 26L75.0572 36.8717Z" fill="#18095B"/>
<path d="M41.0002 62C41.0002 60.8954 41.8957 60 43.0002 60H52.1433C53.2479 60 54.1433 60.8954 54.1433 62V82.8475H79.9558V62C79.9558 60.8954 80.8513 60 81.9558 60H91.0002C92.1048 60 93.0002 60.8954 93.0002 62V116C93.0002 117.105 92.1048 118 91.0002 118H81.9558C80.8513 118 79.9558 117.105 79.9558 116V94.6558H54.1433V116C54.1433 117.105 53.2479 118 52.1433 118H43.0002C41.8957 118 41.0002 117.105 41.0002 116V62Z" fill="#18095B"/>
<path d="M66.5149 0C63.6922 0.307608 61.4701 3.50674 61.4701 7.3826C61.4701 11.0739 63.452 14.15 66.0945 14.7037" fill="#18095B"/>
<path d="M67.8955 0.061554C68.3159 1.72264 68.3759 3.44524 68.1357 5.16785C68.0156 6.02915 67.7753 6.89046 67.5351 7.69024C67.2348 8.79763 66.9345 9.84351 66.8144 10.8894C66.6943 12.2429 66.9946 13.5963 67.5952 14.8268C70.3578 14.4576 72.5199 11.2585 72.5199 7.44416C72.5199 3.69133 70.538 0.676771 67.8955 0.061554Z" fill="#18095B"/>
<path d="M53.062 8.1209C51.8609 9.04372 51.6207 11.0739 52.6416 12.7965C53.6025 14.4576 55.2841 15.3189 56.6054 14.8883" fill="#18095B"/>
<path d="M53.7225 7.75174C54.3231 8.36695 54.8036 9.16674 55.1038 10.028C55.284 10.4587 55.3441 10.8893 55.4642 11.32C55.5843 11.8737 55.7044 12.4274 55.9446 12.9811C56.2449 13.5963 56.7254 14.15 57.2659 14.5806C58.407 13.6578 58.6472 11.6276 57.6262 9.90499C56.7254 8.18239 55.0438 7.32108 53.7225 7.75174Z" fill="#18095B"/>
<path d="M80.5077 7.87483C79.1264 7.25961 77.3247 8.12091 76.3037 9.84351C75.3428 11.5046 75.4629 13.4118 76.4839 14.3961" fill="#18095B"/>
<path d="M81.1085 8.30553C80.8683 9.16683 80.4479 9.96662 79.9074 10.6434C79.6071 11.0125 79.3068 11.3201 79.0065 11.6277C78.5861 12.0583 78.1658 12.4275 77.8655 12.8581C77.5051 13.4118 77.2649 14.1501 77.2048 14.8268C78.5861 15.3805 80.3278 14.5808 81.3488 12.7966C82.3097 11.1971 82.1896 9.22835 81.1085 8.30553Z" fill="#18095B"/>
</svg>
